<svg width="24" height="16" viewBox="0 0 24 16" fill="none" xmlns="http://www.w3.org/2000/svg">
<path fill-rule="evenodd" clip-rule="evenodd" d="M18.146 4.14689C18.1924 4.10033 18.2476 4.06339 18.3083 4.03818C18.3691 4.01297 18.4342 4 18.5 4C18.5657 4 18.6309 4.01297 18.6916 4.03818C18.7524 4.06339 18.8075 4.10033 18.854 4.14689L21.854 7.14689C21.9005 7.19334 21.9375 7.24851 21.9627 7.30926C21.9879 7.37001 22.0009 7.43513 22.0009 7.50089C22.0009 7.56666 21.9879 7.63178 21.9627 7.69253C21.9375 7.75327 21.9005 7.80845 21.854 7.85489L18.854 10.8549C18.7601 10.9488 18.6328 11.0015 18.5 11.0015C18.3672 11.0015 18.2399 10.9488 18.146 10.8549C18.0521 10.761 17.9993 10.6337 17.9993 10.5009C17.9993 10.3681 18.0521 10.2408 18.146 10.1469L20.793 7.50089L18.146 4.85489C18.0994 4.80845 18.0625 4.75327 18.0373 4.69253C18.0121 4.63178 17.9991 4.56666 17.9991 4.50089C17.9991 4.43513 18.0121 4.37001 18.0373 4.30926C18.0625 4.24851 18.0994 4.19334 18.146 4.14689Z" fill="black"/>
<path fill-rule="evenodd" clip-rule="evenodd" d="M1 7.5C1 7.36739 1.0962 7.24021 1.26742 7.14645C1.43865 7.05268 1.67089 7 1.91304 7H21.087C21.3291 7 21.5613 7.05268 21.7326 7.14645C21.9038 7.24021 22 7.36739 22 7.5C22 7.63261 21.9038 7.75979 21.7326 7.85355C21.5613 7.94732 21.3291 8 21.087 8H1.91304C1.67089 8 1.43865 7.94732 1.26742 7.85355C1.0962 7.75979 1 7.63261 1 7.5Z" fill="black"/>
</svg>
