<svg width="69" height="69" viewBox="0 0 69 69" fill="none" xmlns="http://www.w3.org/2000/svg">
<path d="M59.2969 7.54688H9.70312C8.51045 7.54688 7.54688 8.51045 7.54688 9.70312V59.2969C7.54688 60.4896 8.51045 61.4531 9.70312 61.4531H59.2969C60.4896 61.4531 61.4531 60.4896 61.4531 59.2969V9.70312C61.4531 8.51045 60.4896 7.54688 59.2969 7.54688ZM23.5368 53.4817H15.5385V27.755H23.5368V53.4817ZM19.541 24.2376C18.6241 24.2376 17.7278 23.9657 16.9654 23.4563C16.2031 22.9469 15.6089 22.2229 15.258 21.3758C14.9071 20.5286 14.8153 19.5965 14.9942 18.6972C15.173 17.7979 15.6146 16.9719 16.2629 16.3236C16.9113 15.6752 17.7373 15.2337 18.6366 15.0548C19.5359 14.8759 20.468 14.9677 21.3151 15.3186C22.1622 15.6695 22.8863 16.2637 23.3957 17.0261C23.9051 17.7884 24.177 18.6848 24.177 19.6017C24.1702 22.1622 22.0948 24.2376 19.541 24.2376ZM53.4817 53.4817H45.4901V40.9688C45.4901 37.9837 45.4362 34.1496 41.3326 34.1496C37.1751 34.1496 36.535 37.3975 36.535 40.7531V53.4817H28.5501V27.755H36.2183V31.2724H36.3261C37.3907 29.2509 39.9984 27.1148 43.8932 27.1148C51.9926 27.1148 53.4817 32.4448 53.4817 39.3718V53.4817Z" fill="black"/>
</svg>
